<?xml version="1.0" encoding="UTF-8"?> <svg xmlns="http://www.w3.org/2000/svg" viewBox="0 0 80.69 21.79"><defs><style>.d{fill:#00243a;}.e{fill:#ffde4f;}.f{fill:#fff;}.g{fill:#a9222f;}.h{fill:#d0d2d3;}</style></defs><g id="a"></g><g id="b"><g id="c"><g><path class="h" d="M16.02,1.65c-.12-.07-3.07-1.65-7.72-1.65S.71,1.59,.58,1.65l-.58,.32,.02,.66,.43,14.05,.02,.6,.52,.3,6.77,3.89,.54,.31,.54-.31,6.77-3.89,.52-.3,.02-.6,.43-14.05,.02-.66-.58-.32Z"></path><path class="d" d="M15.5,2.6s-2.78-1.52-7.2-1.52S1.1,2.6,1.1,2.6l.08,2.46,4.92,.97-.05,.88-4.78,.93,.27,8.81,4,2.3,5.18-2.98,.36,2.98,4-2.3,.27-8.81-4.78-.93-.05-.88,4.91-.97,.08-2.46ZM5.76,17.01l.3-2.51,4.19-2.41,.26,2.18-4.75,2.73Zm.53-4.45l.26-2.16s.47-.25,1.75-.25,1.74,.25,1.74,.25l-3.75,2.16Zm4.61-4.41l.1,1.41s-.5-.34-2.71-.34-2.72,.34-2.72,.34l.1-1.41s.4-.34,2.61-.34,2.61,.34,2.61,.34m-.11-3.1c-.37-.06-1.28-.19-2.5-.19s-2.1,.12-2.48,.19c-.05,0-.08-.06-.04-.09l2.39-1.79c.08-.06,.18-.06,.26,0l2.4,1.81s.01,.09-.03,.08"></path><path class="e" d="M6.69,7.15s.87-.11,1.61-.11,1.61,.11,1.61,.11l-.1-1.4s-.65-.11-1.5-.11-1.51,.11-1.51,.11l-.1,1.4Z"></path><path class="f" d="M26.96,12.94l-1.58-3.12h-1.49v3.12h-2V4.26h3.76c2.59,0,3.43,1.21,3.43,2.71,0,1.34-.83,2.14-1.89,2.55l2.08,3.42h-2.31Zm-3.06-4.13h1.21c1.18,0,2.01-.63,2.01-1.81,0-.97-.66-1.71-1.99-1.71h-1.24v3.52Zm12.58,.22l-4.72,1.33c.28,1.04,.97,1.68,1.97,1.68,1.2,0,2.04-1.28,2.05-1.28l.45,.84s-1.1,1.58-3.13,1.58-3.5-1.33-3.5-3.52c0-1.91,1.43-3.43,3.59-3.43,2.84,0,3.3,2.81,3.29,2.8m-1.99-.26s-.36-1.66-1.53-1.66c-.67,0-1.34,.64-1.34,2.16,0,.11,0,.21,.01,.32l2.85-.82Zm10.66,.96c0-2.01,1.42-3.5,3.6-3.5,1.85,0,3.39,1.35,3.39,3.37,0,2.12-1.39,3.6-3.58,3.6-1.91,0-3.42-1.34-3.42-3.47m5.13,.55c0-1.45-.71-3.14-1.89-3.14-.82,0-1.3,.71-1.3,2.04,0,1.45,.71,3.17,1.88,3.17,.83,0,1.31-.72,1.31-2.06m7.83-.05c0-1.81-.74-2.81-1.72-2.81-.85,0-1.35,1.03-1.35,1.03v2.81s.38,.97,1.55,.97c.89,0,1.53-.76,1.53-2m1.95-.75c0,1.99-1.17,3.72-3.44,3.72-1.05,0-1.84-.6-2.06-.79l-1.38,.53V3.6l1.87-.63V7.42c.55-.63,1.31-1.18,2.29-1.18,1.63,0,2.73,1.28,2.73,3.25m.59,.25c0-2.01,1.42-3.5,3.6-3.5,1.85,0,3.39,1.35,3.39,3.37,0,2.12-1.39,3.6-3.58,3.6-1.91,0-3.42-1.34-3.42-3.47m5.13,.55c0-1.45-.71-3.14-1.89-3.14-.82,0-1.3,.71-1.3,2.04,0,1.45,.71,3.17,1.88,3.17,.83,0,1.31-.72,1.31-2.06m3.34,1.31c0,.92,.75,1.6,1.97,1.6,1.3,0,2.14-.96,2.13-.97l-.37-.7s-.54,.63-1.13,.63c-.36,0-.7-.16-.7-.89v-4h2.04v-.91h-2.04v-1.75l-1.91,.64v1.11h-1v.91h1v4.33m11.57-3.25c0-.87-.41-2.12-2.06-2.12-1.03,0-2.05,.91-2.6,1.5V2.96l-1.91,.64V12.94h1.91v-4.21c.42-.47,1.08-1.1,1.67-1.1,.68,0,1.09,.37,1.09,1.47v3.84h1.91v-4.59m-36.56,0c0-.87-.41-2.12-2.06-2.12-1.03,0-2.05,.91-2.6,1.5V2.96l-1.91,.64V12.94h1.91v-4.21c.42-.47,1.08-1.1,1.67-1.1,.68,0,1.09,.37,1.09,1.47v3.84h1.91v-4.59"></path><path class="g" d="M22.98,18.05s-.07,0-.1,0h-.1s-.06-.02-.09-.03c-.03,0-.06-.02-.09-.03-.03,0-.06-.02-.09-.03-.03-.01-.06-.03-.09-.04l-.09-.04s-.06-.03-.08-.05c-.03-.02-.05-.04-.07-.06-.02-.02-.05-.04-.07-.07-.02-.02-.04-.05-.06-.07-.02-.03-.04-.05-.05-.08-.01-.03-.03-.06-.04-.09l-.03-.09s-.02-.06-.02-.09c0-.03,0-.06-.01-.1,0-.03,0-.06,0-.1,0-.03,0-.06,0-.09v-.1s.03-.06,.04-.09c0-.03,.02-.06,.03-.09,.01-.03,.03-.06,.04-.09,.01-.03,.03-.06,.05-.08,.02-.03,.04-.05,.06-.07,.02-.02,.04-.05,.07-.07,.02-.02,.05-.04,.07-.06,.03-.02,.06-.04,.08-.05,.03-.02,.05-.03,.08-.05,.03-.01,.06-.03,.09-.04l.09-.03s.06-.02,.09-.02l.09-.02s.06,0,.09-.01c.03,0,.06,0,.1,0,.03,0,.06,0,.1,0h.1s.06,0,.1,0h.1s.07,.02,.1,.03c.03,0,.06,.01,.09,.02,.03,0,.06,.02,.1,.03,.03,.01,.06,.02,.09,.03,.03,.01,.06,.02,.09,.04,.03,.01,.06,.03,.09,.04,.03,.01,.05,.04,.06,.07,.01,.03,0,.06,0,.09l-.05,.1s-.03,.05-.05,.1c-.02,.03-.05,.06-.08,.07-.04,.01-.07,0-.11-.01l-.09-.03s-.06-.02-.09-.03-.06-.01-.09-.01c-.03,0-.06-.01-.09-.01-.03,0-.06,0-.09,0-.03,0-.06,0-.09,0h-.1s-.06,.01-.09,.01c-.03,0-.06,.01-.09,.02-.03,.01-.06,.02-.09,.03-.03,.01-.06,.03-.08,.04-.03,.02-.06,.03-.08,.06-.02,.02-.04,.04-.06,.07-.02,.03-.03,.05-.04,.08-.01,.03-.03,.06-.03,.09,0,.03-.01,.06-.01,.09,0,.03,0,.06,.01,.09,0,.03,.01,.06,.03,.09,.01,.03,.02,.06,.04,.09,.02,.03,.04,.05,.06,.07,.02,.02,.04,.04,.07,.06,.02,.01,.05,.03,.08,.04,.03,.01,.06,.02,.09,.03,.03,.01,.06,.01,.09,.02h.09s.06,.02,.09,.02c.03,0,.06,0,.1-.01,.03,0,.06,0,.1-.01,.03,0,.06-.01,.1-.02,.03-.01,.06-.02,.1-.03,.03-.01,.06-.02,.09-.04,.03-.01,.06-.03,.09-.04,.03-.02,.07-.03,.1-.02,.03,0,.07,.03,.09,.06,.01,.02,.03,.05,.04,.06,.01,.03,.03,.05,.04,.07,.01,.03,.02,.06,.02,.09,0,.03-.02,.06-.05,.08-.03,.02-.05,.03-.08,.05-.03,.02-.06,.03-.08,.05l-.08,.04s-.06,.03-.09,.04c-.03,.01-.06,.03-.09,.04-.03,.01-.06,.02-.09,.03l-.09,.02h-.09s-.06,.02-.09,.02c-.03,0-.06,0-.1,0-.03,0-.06,0-.09,0"></path><path class="g" d="M25.75,18s-.03-.06-.03-.09v-.1s0-.05,0-.1c0-.05,0-.05,0-.1v-.39c0-.05,0-.05,0-.1s0-.05,0-.1c0-.05,0-.05,0-.1s0-.05,0-.1v-.1c0-.05,0-.05,0-.1v-.39s.02-.06,.04-.09c.02-.02,.05-.04,.09-.04h.21c.05,0,.05,0,.1,0,.04,0,.06,.01,.09,.03,.02,.02,.04,.05,.04,.09v.2c0,.05,0,.05,0,.1v.1s0,.05,0,.1c0,.04,.03,.07,.07,.07,.05,0,.05,0,.1,0h.41s.05,0,.1,0h.1s.05,0,.1,0c.04,0,.07-.03,.07-.07,0-.05,0-.05,0-.1,0-.05,0-.05,0-.1v-.1c0-.05,0-.05,0-.1v-.1s.01-.06,.04-.09c.02-.02,.05-.04,.09-.04h.1q.05,0,.1,0s.05,0,.1,0c.03,0,.06,.01,.09,.04,.02,.02,.04,.05,.04,.09v.1s0,.05,0,.1c0,.05,0,.05,0,.1,0,.05,0,.05,0,.1v.6s0,.05,0,.1v.3s0,.05,0,.1v.1s0,.05,0,.1c0,.03-.01,.06-.04,.09-.02,.02-.05,.04-.09,.04h-.3s-.06-.01-.09-.04c-.02-.02-.03-.05-.03-.09,0-.05,0-.05,0-.1,0-.05,0-.05,0-.1s0-.05,0-.1v-.29s-.03-.07-.07-.07c-.05,0-.05,0-.1,0-.05,0-.05,0-.1,0h-.1s-.05,0-.1,0-.05,0-.1,0h-.2c-.05,0-.05,0-.1,0-.04,0-.07,.03-.07,.07v.39c0,.05,0,.05,0,.1s0,.05,0,.1c0,.03-.01,.06-.04,.09-.02,.02-.05,.04-.09,.04h-.31s-.06-.01-.09-.03"></path><path class="g" d="M31.03,18.01s-.04-.03-.06-.05t-.06-.08l-.06-.08s-.03-.04-.06-.07c-.03-.04-.03-.04-.06-.08t-.06-.07s-.03-.04-.06-.08c-.03-.04-.02-.04-.05-.08l-.06-.08s-.05-.04-.08-.04h-.26s-.05,.02-.05,.05v.55s-.01,.07-.04,.09c-.02,.02-.05,.03-.09,.03h-.3s-.06-.01-.09-.03c-.02-.02-.04-.06-.04-.09,0-.05,0-.05,0-.1v-.4s0-.05,0-.1c0-.05,0-.05,0-.1v-.3s0-.05,0-.1c0-.05,0-.05,0-.1v-.1s0-.05,0-.1,0-.05,0-.1v-.1s0-.05,0-.1c0-.03,.02-.06,.04-.09,.02-.02,.05-.04,.09-.04h.1s.05,0,.1,0h.2s.05,0,.1,0h.39s.05,0,.1,0h.19s.06,0,.1,0c.03,0,.07,0,.1,.01,.03,0,.06,.01,.1,.02,.03,0,.06,.02,.09,.03,.03,.01,.06,.03,.09,.04,.03,.02,.06,.03,.08,.06,.02,.02,.04,.05,.06,.07,.02,.03,.04,.05,.05,.09,.01,.03,.02,.06,.03,.09,0,.03,.01,.06,.02,.1,0,.03,0,.06,0,.1,0,.04,0,.07,0,.1l-.02,.1s-.03,.06-.04,.09c-.01,.03-.03,.06-.06,.08s-.04,.05-.07,.07c-.03,.02-.06,.04-.09,.06-.03,.01-.06,.03-.09,.04l-.1,.03s-.02,.01-.03,.03c0,.01,0,.02,0,.03t.06,.08l.06,.08s.03,.04,.05,.08t.06,.08s.03,.04,.06,.08l.05,.08s.03,.04,.06,.08c.02,.03,.02,.06,0,.08-.01,.03-.04,.04-.07,.04q-.06,0-.11,0c-.06,0-.06,0-.11,0-.05,0-.05,0-.11,0-.03,0-.05-.01-.07-.02m-.54-1.09s.05,0,.1,0,.05,0,.1,0h.1s.06,0,.09,0c.03-.01,.06-.02,.08-.04,.03-.02,.04-.04,.06-.07,.01-.03,.02-.06,.02-.09,0-.04-.01-.07-.03-.1-.01-.03-.04-.05-.07-.07-.03-.01-.06-.03-.1-.03-.03,0-.06-.01-.1-.01h-.09s-.04,0-.09,0c-.04,0-.04,0-.09,0-.04,0-.04,0-.09,0-.04,0-.04,0-.09,0h-.09s-.05,.02-.05,.05v.31s.02,.05,.05,.05h.1c.05,0,.05,0,.1,0,.05,0,.05,0,.1,0"></path><path class="g" d="M33.55,18.03h-.1s-.06-.01-.09-.04c-.02-.02-.04-.05-.04-.09v-.59s0-.05,0-.1c0-.05,0-.05,0-.1s0-.05,0-.1c0-.05,0-.05,0-.1v-.1s0-.05,0-.1c0-.05,0-.05,0-.1s0-.05,0-.1v-.1c0-.05,0-.05,0-.1s0-.05,0-.1c0-.03,.01-.06,.03-.09,.02-.02,.05-.03,.09-.03,.05,0,.05,0,.1,0h.1c.05,0,.05,0,.1,0,.03,0,.06,.01,.09,.03,.02,.02,.03,.05,.03,.09,0,.05,0,.05,0,.1,0,.05,0,.05,0,.1s0,.05,0,.1v.1s0,.05,0,.1c0,.05,0,.05,0,.1v1.09s-.01,.07-.04,.09c-.02,.02-.05,.03-.09,.03h-.2Z"></path><path class="g" d="M36.46,18.04s-.07,0-.1,0h-.1s-.07-.02-.1-.03c-.03,0-.07-.01-.1-.01l-.1-.02s-.07-.02-.1-.03c-.03,0-.07-.02-.09-.03l-.1-.04s-.06-.03-.07-.06c-.01-.03-.01-.07,0-.1,.02-.05,.02-.05,.04-.11,.02-.05,.03-.05,.05-.11,.01-.04,.05-.07,.09-.08,.04-.01,.09,0,.12,.02,.03,.01,.06,.03,.09,.05l.09,.04s.06,.02,.09,.03c.03,.01,.06,.02,.1,.03,.03,0,.06,.01,.1,.02,.03,0,.07,.01,.1,.01h.19s.06,0,.09,0h.09s.07-.02,.09-.03c.03,0,.06-.02,.09-.03,.03-.01,.06-.03,.07-.06,.02-.02,.03-.05,.03-.09,0-.03-.01-.06-.04-.08-.02-.01-.05-.03-.09-.04-.03-.01-.06-.02-.09-.03-.03,0-.06-.01-.1-.01h-.1l-.09-.02h-.1s-.06-.01-.1-.02c-.03,0-.06,0-.09-.01-.03,0-.06,0-.09-.01-.03,0-.06-.02-.09-.02l-.09-.02s-.06-.02-.09-.03c-.03-.01-.06-.03-.09-.04-.03-.01-.06-.03-.08-.04-.03-.02-.05-.04-.07-.06-.02-.02-.04-.05-.06-.07-.02-.03-.03-.06-.03-.09-.01-.03-.02-.06-.02-.09s0-.06,0-.09c0-.03,.01-.06,.02-.09,.01-.03,.02-.06,.04-.09,.01-.03,.03-.06,.05-.08,.02-.03,.04-.04,.07-.07,.03-.02,.05-.04,.08-.05,.03-.02,.06-.04,.08-.05,.03-.01,.06-.03,.09-.04,.03-.01,.06-.02,.09-.03,.03,0,.06-.02,.09-.02,.03,0,.07-.01,.1-.01h.09s.08-.01,.09-.01h.1s.06,0,.09,0h.09s.06,.02,.09,.02c.03,0,.06,.01,.09,.01,.03,0,.06,.01,.09,.02,.03,0,.06,.02,.09,.03,.03,0,.06,.01,.09,.03,.03,.01,.06,.02,.09,.03,.03,.01,.06,.03,.09,.04,.03,.01,.05,.04,.06,.07,.01,.03,0,.07,0,.1l-.04,.09s-.05,.06-.08,.07c-.04,.01-.07,0-.11-.01-.03-.01-.06-.02-.09-.04-.03-.01-.06-.02-.1-.03-.03-.01-.06-.02-.1-.03-.03,0-.06-.01-.1-.02h-.1s-.07-.02-.1-.02c-.03,0-.07,0-.1,0-.04,0-.07,0-.1,0-.04,0-.07,0-.1,0-.04,0-.07,.01-.1,.02-.04,.01-.07,.03-.09,.04-.03,.02-.05,.05-.05,.09,0,.03,0,.06,.04,.08,.02,.01,.05,.03,.1,.04,.03,0,.06,.01,.1,.02,.03,0,.06,.01,.1,.01h.1s.06,.02,.1,.02h.09s.07,.02,.1,.02c.03,0,.06,0,.09,.01h.09s.06,.03,.09,.03l.09,.02s.06,.02,.09,.03c.03,.01,.06,.03,.08,.04,.03,.02,.06,.04,.08,.06,.03,.02,.05,.04,.07,.06,.02,.03,.04,.05,.05,.08,.01,.03,.02,.06,.03,.09,0,.03,.01,.06,.02,.09,0,.03,0,.06,0,.09,0,.03,0,.06-.01,.1,0,.03-.01,.06-.03,.09-.01,.03-.03,.06-.04,.09-.02,.03-.04,.05-.06,.07-.02,.02-.05,.05-.08,.07-.02,.01-.05,.03-.09,.05-.03,.01-.06,.03-.09,.04-.03,.01-.06,.02-.09,.03-.03,0-.06,.02-.1,.03-.03,0-.06,.01-.1,.01-.03,0-.07,.01-.1,.01h-.1s-.06,.01-.1,.01-.07,0-.1,0-.07,0-.1,0"></path><path class="g" d="M39.95,18s-.04-.05-.04-.09v-.09s0-.05,0-.1v-.38s0-.05,0-.1c0-.04,0-.04,0-.09s0-.05,0-.1v-.38s0-.05,0-.09c0-.01,0-.03-.01-.03,0,0-.02-.01-.03-.01-.03,0-.06,0-.1,0-.03,0-.06,0-.1,0-.03,0-.06,0-.09,0-.03,0-.07,0-.1,0-.03,0-.06,0-.09,0h-.1s-.07,0-.09-.03c-.02-.02-.04-.06-.04-.09v-.1c0-.06,0-.06,0-.11,0-.03,.01-.06,.03-.09,.02-.02,.05-.03,.09-.03,.05,0,.05,0,.1,0s.05,0,.1,0h.29c.05,0,.05,0,.1,0h.2s.05,0,.1,0c.05,0,.05,0,.1,0s.05,0,.1,0c.05,0,.05,0,.1,0s.05,0,.1,0c.05,0,.05,0,.1,0h.39s.06,.01,.09,.04c.02,.02,.04,.05,.04,.09q0,.05,0,.1c0,.06,0,.06,0,.11,0,.03-.01,.06-.03,.09-.03,.03-.06,.04-.09,.04s-.06,0-.09,0c-.03,0-.06,0-.1,0-.03,0-.06,0-.09,0h-.09s-.06,0-.1,0c-.03,0-.06,0-.09,0-.01,0-.02,0-.03,.01,0,0-.01,.02-.01,.03v.38s0,.04,0,.09,0,.05,0,.09v.57s0,.05,0,.1v.09s-.02,.06-.04,.09c-.02,.02-.05,.04-.09,.04h-.3s-.06-.01-.09-.04"></path><path class="g" d="M43.06,18.03h-.1s-.06-.01-.09-.04c-.02-.02-.04-.05-.04-.09v-.59s0-.05,0-.1c0-.05,0-.05,0-.1s0-.05,0-.1c0-.05,0-.05,0-.1v-.1s0-.05,0-.1c0-.05,0-.05,0-.1s0-.05,0-.1v-.1c0-.05,0-.05,0-.1s0-.05,0-.1c0-.03,.01-.06,.03-.09,.02-.02,.05-.03,.09-.03,.05,0,.05,0,.1,0h.1c.05,0,.05,0,.1,0,.03,0,.06,.01,.09,.03,.02,.02,.03,.05,.03,.09,0,.05,0,.05,0,.1,0,.05,0,.05,0,.1s0,.05,0,.1v.1s0,.05,0,.1c0,.05,0,.05,0,.1v1.09s-.01,.07-.04,.09c-.02,.02-.05,.03-.09,.03h-.2Z"></path><path class="g" d="M45.26,18.03h-.12s-.07-.02-.09-.05c-.02-.03-.03-.07-.01-.1l.04-.09,.04-.1s.02-.05,.03-.09l.04-.09s.01-.05,.03-.09c.02-.05,.02-.05,.04-.09,.02-.05,.01-.05,.03-.1l.04-.09s.01-.05,.03-.09l.04-.09s.02-.05,.04-.09c.01-.05,.02-.05,.03-.09l.04-.09s.02-.05,.03-.09l.04-.09s.02-.05,.03-.09l.04-.09s.01-.05,.03-.09c.01-.03,.03-.06,.06-.07,.02-.02,.05-.02,.08-.02,.06,0,.06,0,.11,0h.32c.05,0,.05,0,.1,0,.03,0,.06,0,.08,.02,.02,.02,.04,.04,.06,.07t.03,.09l.04,.09s.02,.05,.04,.09l.04,.09s.02,.04,.03,.09c.02,.04,.02,.04,.04,.09,.02,.04,.02,.05,.03,.09,.02,.04,.02,.04,.04,.09l.04,.09,.04,.09,.04,.09s.01,.04,.03,.09l.04,.09,.04,.09s.01,.04,.03,.09c.02,.04,.02,.04,.04,.09t.03,.09s.02,.04,.03,.09l.04,.09s.01,.07,0,.1c-.02,.03-.06,.05-.09,.05h-.31s-.06-.01-.08-.03c-.02-.02-.04-.04-.05-.07-.02-.04-.02-.04-.04-.09t-.03-.09l-.04-.09s-.04-.06-.08-.06c-.05,0-.05,0-.1,0-.04,0-.04,0-.09,0h-.1s-.05,0-.09,0h-.19s-.05,0-.1,0h-.09s-.07,.02-.08,.06l-.03,.09s-.02,.04-.03,.09l-.03,.09s-.03,.06-.05,.07c-.03,.02-.06,.03-.09,.03h-.12Zm1.05-.71s.04,0,.05-.02c.01-.02,.01-.04,0-.06-.02-.04-.01-.04-.03-.09l-.04-.09s-.02-.05-.03-.09l-.04-.09s-.02-.04-.04-.09t-.03-.09s-.02-.05-.03-.09c-.01-.02-.03-.04-.06-.03-.03,0-.05,.01-.06,.03t-.03,.09s-.02,.05-.03,.09c-.02,.04-.01,.04-.03,.09l-.04,.09s-.01,.04-.03,.09c-.01,.04-.02,.04-.03,.09t-.03,.09s0,.04,0,.06c.01,.01,.03,.02,.05,.02h.48Z"></path><path class="g" d="M50.67,18.03h-.09s-.06,0-.09-.02c-.03-.01-.05-.03-.07-.05-.03-.04-.03-.04-.06-.07-.03-.04-.04-.04-.07-.07l-.07-.07s-.03-.03-.07-.07t-.06-.07l-.07-.07s-.03-.03-.06-.07t-.06-.07s-.03-.04-.06-.07c-.03-.04-.03-.03-.07-.07-.03-.03-.03-.04-.06-.07-.03-.04-.03-.03-.07-.07t-.06-.07s-.03-.03-.07-.07c-.03-.03-.03-.04-.06-.07-.03-.04-.03-.03-.07-.07,0-.01-.03-.01-.04-.01-.01,0-.02,.02-.02,.04v.29s0,.05,0,.09,0,.05,0,.1v.19s0,.05,0,.1,0,.05,0,.1v.19s-.02,.07-.04,.09c-.02,.02-.05,.03-.09,.03h-.24s-.06-.01-.09-.04c-.02-.02-.03-.05-.03-.09v-.1s0-.05,0-.1v-.4s0-.05,0-.1v-.49c0-.05,0-.05,0-.1s0-.05,0-.1c0-.05,0-.05,0-.1s0-.05,0-.1,0-.05,0-.1c0-.03,.01-.06,.04-.09,.02-.02,.05-.04,.09-.04,.06,0,.06,0,.12,0h.22s.06,0,.09,.01c.03,.01,.05,.03,.07,.06t.07,.07l.07,.07s.03,.04,.07,.08l.07,.07,.07,.07,.07,.07s.04,.04,.07,.07c.03,.04,.03,.04,.07,.07,.03,.04,.03,.04,.06,.07,.03,.04,.03,.04,.07,.07,.04,.04,.04,.04,.07,.07t.07,.08s.03,.03,.07,.07c0,.01,.03,.02,.04,.01,.01,0,.02-.02,.02-.03,0-.05,0-.05,0-.1v-.3s0-.05,0-.1c0-.05,0-.05,0-.1,0-.05,0-.05,0-.1v-.1s0-.05,0-.1c0-.03,.01-.06,.03-.09,.02-.02,.05-.04,.09-.04h.09s.04,0,.08,0h.09s.06,.01,.08,.03c.02,.02,.04,.05,.04,.09v.1c0,.05,0,.05,0,.1s0,.05,0,.1v.49s0,.05,0,.1v.2c0,.05,0,.05,0,.1v.49s-.01,.07-.03,.09c-.02,.02-.05,.04-.09,.04-.04,0-.04,0-.09,0"></path><path class="g" d="M56.03,18.04s-.07,0-.1,0h-.1s-.07-.02-.1-.03c-.03,0-.07-.01-.1-.01l-.1-.02s-.07-.02-.1-.03c-.03,0-.07-.02-.09-.03l-.1-.04s-.06-.03-.07-.06c-.01-.03-.01-.07,0-.1,.02-.05,.02-.05,.04-.11,.02-.05,.03-.05,.05-.11,.01-.04,.05-.07,.09-.08,.04-.01,.09,0,.12,.02,.03,.01,.06,.03,.09,.05l.09,.04s.06,.02,.09,.03c.03,.01,.06,.02,.1,.03,.03,0,.06,.01,.1,.02,.03,0,.07,.01,.1,.01h.19s.06,0,.09,0h.09s.07-.02,.09-.03c.03,0,.06-.02,.09-.03,.03-.01,.06-.03,.07-.06s.03-.05,.03-.09c0-.03-.01-.06-.04-.08-.02-.01-.05-.03-.09-.04-.03-.01-.06-.02-.09-.03-.03,0-.06-.01-.1-.01h-.1l-.09-.02h-.1s-.06-.01-.1-.02c-.03,0-.06,0-.09-.01-.03,0-.06,0-.09-.01-.03,0-.06-.02-.09-.02l-.09-.02s-.06-.02-.09-.03c-.03-.01-.06-.03-.09-.04-.03-.01-.06-.03-.08-.04-.03-.02-.05-.04-.07-.06-.02-.02-.04-.05-.06-.07-.02-.03-.03-.06-.03-.09-.01-.03-.02-.06-.02-.09s0-.06,0-.09c0-.03,.01-.06,.02-.09,.01-.03,.02-.06,.04-.09,.01-.03,.03-.06,.05-.08,.02-.03,.04-.04,.07-.07,.03-.02,.05-.04,.08-.05,.03-.02,.06-.04,.08-.05,.03-.01,.06-.03,.09-.04,.03-.01,.06-.02,.09-.03,.03,0,.06-.02,.09-.02,.03,0,.07-.01,.1-.01h.09s.08-.01,.09-.01h.1s.06,0,.09,0h.09s.06,.02,.09,.02c.03,0,.06,.01,.09,.01,.03,0,.06,.01,.09,.02,.03,0,.06,.02,.09,.03,.03,0,.06,.01,.09,.03,.03,.01,.06,.02,.09,.03,.03,.01,.06,.03,.09,.04,.03,.01,.05,.04,.06,.07,.01,.03,0,.07,0,.1l-.04,.09s-.05,.06-.08,.07c-.04,.01-.07,0-.11-.01-.03-.01-.06-.02-.09-.04-.03-.01-.06-.02-.1-.03-.03-.01-.06-.02-.1-.03-.03,0-.06-.01-.1-.02h-.1s-.07-.02-.1-.02c-.03,0-.07,0-.1,0-.04,0-.07,0-.1,0-.04,0-.07,0-.1,0-.04,0-.07,.01-.1,.02-.04,.01-.07,.03-.09,.04-.03,.02-.05,.05-.05,.09,0,.03,0,.06,.04,.08,.02,.01,.05,.03,.1,.04,.03,0,.06,.01,.1,.02,.03,0,.06,.01,.1,.01h.1s.06,.02,.1,.02h.09s.07,.02,.1,.02c.03,0,.06,0,.09,.01h.09s.06,.03,.09,.03l.09,.02s.06,.02,.09,.03c.03,.01,.06,.03,.08,.04,.03,.02,.06,.04,.08,.06,.03,.02,.05,.04,.07,.06,.02,.03,.04,.05,.05,.08,.01,.03,.02,.06,.03,.09,0,.03,.01,.06,.02,.09,0,.03,0,.06,0,.09,0,.03,0,.06-.01,.1,0,.03-.01,.06-.03,.09-.01,.03-.03,.06-.04,.09-.02,.03-.04,.05-.06,.07-.02,.02-.05,.05-.08,.07-.02,.01-.05,.03-.09,.05-.03,.01-.06,.03-.09,.04-.03,.01-.06,.02-.09,.03-.03,0-.06,.02-.1,.03-.03,0-.06,.01-.1,.01-.03,0-.07,.01-.1,.01h-.1s-.06,.01-.1,.01-.07,0-.1,0-.07,0-.1,0"></path><path class="g" d="M59.92,18.05s-.07,0-.1,0h-.1s-.06-.02-.09-.03c-.03,0-.06-.02-.09-.03-.03,0-.06-.02-.09-.03-.03-.01-.06-.03-.09-.04l-.09-.04s-.06-.03-.08-.05c-.03-.02-.05-.04-.07-.06-.02-.02-.05-.04-.07-.07-.02-.02-.04-.05-.06-.07-.02-.03-.04-.05-.05-.08-.01-.03-.03-.06-.04-.09l-.03-.09s-.02-.06-.02-.09c0-.03,0-.06-.01-.1,0-.03,0-.06,0-.1,0-.03,0-.06,0-.09v-.1s.03-.06,.04-.09c0-.03,.02-.06,.03-.09,.01-.03,.03-.06,.04-.09,.01-.03,.03-.06,.05-.08,.02-.03,.04-.05,.06-.07,.02-.02,.04-.05,.07-.07,.02-.02,.05-.04,.07-.06,.03-.02,.06-.04,.08-.05,.03-.02,.05-.03,.08-.05,.03-.01,.06-.03,.09-.04l.09-.03s.06-.02,.09-.02l.09-.02s.06,0,.09-.01c.03,0,.06,0,.1,0,.03,0,.06,0,.1,0h.1s.06,0,.1,0h.1s.07,.02,.1,.03c.03,0,.06,.01,.09,.02,.03,0,.06,.02,.1,.03,.03,.01,.06,.02,.09,.03,.03,.01,.06,.02,.09,.04,.03,.01,.06,.03,.09,.04,.03,.01,.05,.04,.06,.07,.01,.03,0,.06,0,.09l-.05,.1s-.03,.05-.05,.1c-.02,.03-.05,.06-.08,.07-.04,.01-.07,0-.11-.01l-.09-.03s-.06-.02-.09-.03c-.03,0-.06-.01-.09-.01-.03,0-.06-.01-.09-.01-.03,0-.06,0-.09,0-.03,0-.06,0-.09,0h-.1s-.06,.01-.09,.01c-.03,0-.06,.01-.09,.02-.03,.01-.06,.02-.09,.03-.03,.01-.06,.03-.08,.04-.03,.02-.06,.03-.08,.06-.02,.02-.04,.04-.06,.07-.02,.03-.03,.05-.04,.08-.01,.03-.03,.06-.03,.09,0,.03-.01,.06-.01,.09,0,.03,0,.06,.01,.09,0,.03,.01,.06,.03,.09,.01,.03,.02,.06,.04,.09,.02,.03,.04,.05,.06,.07,.02,.02,.04,.04,.07,.06,.02,.01,.05,.03,.08,.04,.03,.01,.06,.02,.09,.03,.03,.01,.06,.01,.09,.02h.09s.06,.02,.09,.02c.03,0,.06,0,.1-.01,.03,0,.06,0,.1-.01,.03,0,.06-.01,.1-.02,.03-.01,.06-.02,.1-.03,.03-.01,.06-.02,.09-.04,.03-.01,.06-.03,.09-.04,.03-.02,.07-.03,.1-.02,.03,0,.07,.03,.09,.06,.01,.02,.03,.05,.04,.06,.01,.03,.03,.05,.04,.07,.01,.03,.02,.06,.02,.09,0,.03-.02,.06-.05,.08-.03,.02-.05,.03-.08,.05-.03,.02-.06,.03-.08,.05l-.08,.04s-.06,.03-.09,.04c-.03,.01-.06,.03-.09,.04-.03,.01-.06,.02-.09,.03l-.09,.02h-.09s-.06,.02-.09,.02c-.03,0-.06,0-.1,0-.03,0-.06,0-.09,0"></path><path class="g" d="M62.69,18s-.03-.06-.03-.09v-.1s0-.05,0-.1c0-.05,0-.05,0-.1v-.39c0-.05,0-.05,0-.1s0-.05,0-.1c0-.05,0-.05,0-.1s0-.05,0-.1v-.1c0-.05,0-.05,0-.1v-.39s.02-.06,.04-.09c.02-.02,.05-.04,.09-.04h.21c.05,0,.05,0,.1,0,.04,0,.06,.01,.09,.03,.02,.02,.04,.05,.04,.09v.2c0,.05,0,.05,0,.1v.1s0,.05,0,.1c0,.04,.03,.07,.07,.07,.05,0,.05,0,.1,0h.41s.05,0,.1,0h.1s.05,0,.1,0c.04,0,.07-.03,.07-.07,0-.05,0-.05,0-.1,0-.05,0-.05,0-.1v-.1c0-.05,0-.05,0-.1v-.1s.01-.06,.04-.09c.02-.02,.05-.04,.09-.04h.1q.05,0,.1,0s.05,0,.1,0c.03,0,.06,.01,.09,.04,.02,.02,.04,.05,.04,.09v.1s0,.05,0,.1c0,.05,0,.05,0,.1,0,.05,0,.05,0,.1v.6s0,.05,0,.1v.3s0,.05,0,.1v.1s0,.05,0,.1c0,.03-.01,.06-.04,.09-.02,.02-.05,.04-.09,.04h-.3s-.06-.01-.09-.04c-.02-.02-.03-.05-.03-.09,0-.05,0-.05,0-.1,0-.05,0-.05,0-.1s0-.05,0-.1v-.29s-.03-.07-.07-.07c-.05,0-.05,0-.1,0-.05,0-.05,0-.1,0h-.1s-.05,0-.1,0-.05,0-.1,0h-.2c-.05,0-.05,0-.1,0-.04,0-.07,.03-.07,.07v.39c0,.05,0,.05,0,.1s0,.05,0,.1c0,.03-.01,.06-.04,.09-.02,.02-.05,.04-.09,.04h-.31s-.06-.01-.09-.03"></path><path class="g" d="M67.58,18.05s-.07,0-.1,0h-.1s-.06-.02-.1-.02c-.03,0-.07-.02-.1-.03-.03-.01-.06-.02-.09-.03-.03-.01-.06-.03-.09-.04-.03-.01-.06-.03-.09-.05-.03-.01-.06-.03-.09-.06-.03-.02-.05-.04-.08-.06l-.07-.07s-.04-.05-.06-.08c-.02-.03-.04-.05-.06-.08l-.04-.09s-.02-.06-.03-.09c0-.03-.02-.06-.03-.1v-.1s-.01-.07-.01-.1,0-.07,0-.1c0-.03,0-.07,.01-.1,0-.03,.02-.06,.03-.09,.01-.03,.02-.07,.03-.1,.01-.03,.03-.06,.04-.09l.06-.08s.04-.05,.07-.08c.02-.02,.04-.05,.07-.07,.02-.02,.05-.04,.08-.06,.03-.02,.06-.04,.08-.05,.03-.02,.06-.03,.09-.05,.03-.01,.06-.03,.09-.04,.03-.01,.06-.02,.09-.03l.1-.02s.07-.01,.1-.02h.2s.07,0,.1,0c.03,0,.07,0,.1,0,.03,0,.07,.01,.1,.02l.1,.02s.07,.02,.1,.03c.03,.01,.06,.03,.09,.04,.03,.01,.06,.03,.09,.05,.03,.02,.06,.04,.08,.06,.03,.02,.06,.04,.08,.06,.03,.02,.05,.05,.07,.07,.02,.03,.04,.05,.06,.07,.02,.03,.04,.06,.05,.09,.02,.03,.04,.06,.05,.09,.01,.03,.03,.06,.04,.09,.01,.03,.02,.07,.02,.1,0,.03,.01,.07,.01,.1,0,.03,0,.06,0,.1,0,.04,0,.07,0,.1,0,.03,0,.07-.02,.1,0,.03-.01,.07-.02,.1-.01,.03-.02,.06-.04,.09-.01,.03-.03,.06-.04,.09-.02,.03-.04,.06-.06,.08-.02,.03-.04,.06-.06,.08-.02,.03-.05,.05-.07,.07-.03,.02-.05,.04-.08,.06-.03,.02-.06,.04-.08,.05-.03,.02-.06,.03-.09,.05-.03,.01-.06,.03-.09,.04l-.1,.03s-.06,.01-.1,.02c-.03,0-.07,.01-.1,.01h-.1s-.07,0-.1,0m.1-.45s.07,0,.1-.01c.03-.01,.06-.02,.09-.04,.03-.01,.06-.03,.09-.05,.03-.02,.05-.04,.07-.07,.02-.03,.04-.05,.06-.08,.02-.03,.03-.06,.05-.09,.01-.03,.02-.06,.03-.1,0-.03,0-.06,0-.1,0-.03,0-.06,0-.1,0-.03-.02-.06-.03-.09-.01-.03-.03-.06-.05-.09-.02-.03-.04-.05-.06-.07-.02-.03-.05-.04-.08-.06-.03-.02-.05-.03-.09-.05-.03-.01-.06-.03-.09-.04l-.1-.02s-.07,0-.1,0-.07,0-.1,0c-.03,0-.07,.01-.1,.02-.03,.01-.06,.02-.09,.03-.03,.01-.06,.03-.09,.05-.03,.02-.05,.04-.07,.06-.03,.03-.04,.05-.06,.08-.02,.03-.04,.06-.05,.09-.01,.03-.02,.06-.03,.1,0,.03,0,.06,0,.1,0,.04,0,.07,.01,.1,0,.03,.01,.07,.03,.1,.01,.03,.03,.06,.05,.09,.01,.03,.04,.06,.06,.08,.02,.02,.05,.04,.07,.06,.03,.02,.06,.04,.09,.05,.03,.01,.06,.02,.1,.03,.03,0,.06,.01,.1,.02,.03,0,.07,.01,.1,.01s.07,0,.1-.01"></path><path class="g" d="M71.49,18.05s-.07,0-.1,0h-.1s-.06-.02-.1-.02c-.03,0-.07-.02-.1-.03-.03-.01-.06-.02-.09-.03-.03-.01-.06-.03-.09-.04-.03-.01-.06-.03-.09-.05-.03-.01-.06-.03-.09-.06-.03-.02-.05-.04-.08-.06l-.07-.07s-.04-.05-.06-.08c-.02-.03-.04-.05-.06-.08l-.04-.09s-.02-.06-.03-.09c0-.03-.02-.06-.03-.1v-.1s-.01-.07-.01-.1,0-.07,0-.1c0-.03,0-.07,.01-.1,0-.03,.02-.06,.03-.09,.01-.03,.02-.07,.03-.1,.01-.03,.03-.06,.04-.09l.06-.08s.04-.05,.07-.08c.02-.02,.04-.05,.07-.07,.02-.02,.05-.04,.08-.06,.03-.02,.06-.04,.08-.05,.03-.02,.06-.03,.09-.05,.03-.01,.06-.03,.09-.04,.03-.01,.06-.02,.09-.03l.1-.02s.07-.01,.1-.02h.2s.07,0,.1,0c.03,0,.07,0,.1,0,.03,0,.07,.01,.1,.02l.1,.02s.07,.02,.1,.03c.03,.01,.06,.03,.09,.04,.03,.01,.06,.03,.09,.05,.03,.02,.06,.04,.08,.06,.03,.02,.06,.04,.08,.06,.03,.02,.05,.05,.07,.07,.02,.03,.04,.05,.06,.07,.02,.03,.04,.06,.05,.09,.02,.03,.04,.06,.05,.09,.01,.03,.03,.06,.04,.09,.01,.03,.01,.07,.02,.1,0,.03,.01,.07,.01,.1,0,.03,0,.06,0,.1,0,.04,0,.07,0,.1,0,.03,0,.07-.01,.1,0,.03-.01,.07-.02,.1-.01,.03-.02,.06-.04,.09-.01,.03-.03,.06-.04,.09-.02,.03-.04,.06-.06,.08-.02,.03-.04,.06-.06,.08-.02,.03-.05,.05-.07,.07-.03,.02-.05,.04-.08,.06-.03,.02-.06,.04-.08,.05-.03,.02-.06,.03-.09,.05-.03,.01-.06,.03-.09,.04l-.1,.03s-.06,.01-.1,.02c-.03,0-.07,.01-.1,.01h-.1s-.07,0-.1,0m.1-.45s.07,0,.1-.01c.03-.01,.06-.02,.09-.04,.03-.01,.06-.03,.09-.05,.03-.02,.05-.04,.07-.07,.02-.03,.04-.05,.06-.08,.02-.03,.03-.06,.05-.09,.01-.03,.02-.06,.03-.1,0-.03,0-.06,0-.1,0-.03,0-.06,0-.1,0-.03-.02-.06-.03-.09-.01-.03-.03-.06-.05-.09-.02-.03-.04-.05-.06-.07-.02-.03-.05-.04-.08-.06-.03-.02-.05-.03-.09-.05-.03-.01-.06-.03-.09-.04l-.1-.02s-.07,0-.1,0-.07,0-.1,0c-.03,0-.07,.01-.1,.02-.03,.01-.06,.02-.09,.03-.03,.01-.06,.03-.09,.05-.03,.02-.05,.04-.07,.06-.03,.03-.04,.05-.06,.08-.02,.03-.04,.06-.05,.09-.01,.03-.02,.06-.03,.1,0,.03,0,.06,0,.1,0,.04,0,.07,.01,.1,0,.03,.01,.07,.03,.1,.01,.03,.03,.06,.05,.09,.01,.03,.04,.06,.06,.08,.02,.02,.05,.04,.07,.06,.03,.02,.06,.04,.09,.05,.03,.01,.06,.02,.1,.03,.03,0,.06,.01,.1,.02,.03,0,.07,.01,.1,.01s.07,0,.1-.01"></path><path class="g" d="M75.26,18.03h-.29s-.05,0-.1,0c-.05,0-.05,0-.1,0h-.29s-.06-.01-.09-.04c-.02-.02-.03-.05-.03-.09,0-.05,0-.05,0-.1,0-.05,0-.05,0-.1v-.1s0-.05,0-.1v-.29c0-.05,0-.05,0-.1s0-.05,0-.1v-.29c0-.05,0-.05,0-.1s0-.05,0-.1v-.1s0-.05,0-.1v-.1s.01-.06,.03-.09c.02-.02,.05-.04,.09-.04h.1c.05,0,.05,0,.1,0,.05,0,.05,0,.1,0,.04,0,.07,.01,.09,.04,.02,.02,.04,.05,.04,.09,0,.05,0,.05,0,.1v.1c0,.05,0,.05,0,.1s0,.05,0,.1c0,.05,0,.05,0,.1s0,.05,0,.1,0,.05,0,.1c0,.05,0,.05,0,.1s0,.05,0,.1v.2s0,.05,0,.1v.1s.04,.08,.08,.08h.29s.05,0,.1,0,.05,0,.1,0c.05,0,.05,0,.1,0s.05,0,.1,0h.48s.07,.01,.09,.03c.02,.02,.04,.06,.04,.09v.2s-.01,.07-.04,.09c-.02,.02-.05,.04-.09,.04-.05,0-.05,0-.1,0h-.2s-.05,0-.1,0-.05,0-.1,0h-.2c-.05,0-.05,0-.1,0s-.05,0-.1,0"></path></g></g></g></svg> 